<svg id="Group_95" data-name="Group 95" xmlns="http://www.w3.org/2000/svg" width="243.17" height="182.377" viewBox="0 0 243.17 182.377">
  <path id="Path_57" data-name="Path 57" d="M91.189,4H22.8A22.825,22.825,0,0,0,0,26.8V95.189a22.825,22.825,0,0,0,22.8,22.8H53.475L41.939,177.335a7.6,7.6,0,0,0,7.455,9.043H74.015A15.259,15.259,0,0,0,88.5,175.792l22.113-52.472a8.749,8.749,0,0,0,.327-.912,83.743,83.743,0,0,0,3.047-22.379V26.8A22.825,22.825,0,0,0,91.189,4ZM220.373,4H151.981a22.825,22.825,0,0,0-22.8,22.8V95.189a22.825,22.825,0,0,0,22.8,22.8h30.677l-11.535,59.349a7.576,7.576,0,0,0,7.455,9.043H203.2a15.236,15.236,0,0,0,14.476-10.586L239.8,123.32c.122-.3.228-.608.319-.919a83.729,83.729,0,0,0,3.047-22.372V26.8A22.825,22.825,0,0,0,220.373,4Z" transform="translate(0 -4)" fill="#6edef7"/>
</svg>
