<svg xmlns="http://www.w3.org/2000/svg" width="75.249" height="72" viewBox="0 0 75.249 72">
  <g id="Group_40" data-name="Group 40" transform="translate(-1291 -1948)">
    <circle id="Ellipse_2" data-name="Ellipse 2" cx="36" cy="36" r="36" transform="translate(1291 1948)" fill="#7684d6" opacity="0.17"/>
    <g id="Group_39" data-name="Group 39" transform="translate(1312.084 1964.861) rotate(-13)">
      <path id="Path_37" data-name="Path 37" d="M18.237,40.4H7.227A3.324,3.324,0,0,1,3.9,37.085V16.511H44.626v5.46a1.4,1.4,0,1,0,2.8,0V9.219a6.118,6.118,0,0,0-6.111-6.111H7.227A6.127,6.127,0,0,0,1.1,9.219V37.086A6.127,6.127,0,0,0,7.227,43.2h11.01a1.4,1.4,0,0,0,0-2.8ZM7.227,5.906H41.314a3.316,3.316,0,0,1,3.312,3.312V13.71H3.9V9.219A3.325,3.325,0,0,1,7.227,5.906Z" transform="translate(-1.1 -3.108)" fill="#7684d6"/>
      <path id="Path_38" data-name="Path 38" d="M6.775,9.233A1.343,1.343,0,1,0,5.432,7.89,1.343,1.343,0,0,0,6.775,9.233Zm4.732,0A1.343,1.343,0,1,0,10.164,7.89a1.343,1.343,0,0,0,1.343,1.343Zm4.732,0A1.343,1.343,0,1,0,14.9,7.89a1.343,1.343,0,0,0,1.343,1.343ZM44.212,25.985a9.123,9.123,0,0,0-6.073-2.171A9.432,9.432,0,0,0,32.663,25.5a9.421,9.421,0,0,0-5.475-1.682,9.123,9.123,0,0,0-6.072,2.17,2.445,2.445,0,0,0-.791,1.823v9.921a2.436,2.436,0,0,0,1.186,2.106A2.508,2.508,0,0,0,24,39.893a6.828,6.828,0,0,1,3.186-.751,6.162,6.162,0,0,1,4.456,1.691,1.4,1.4,0,0,0,2.039,0,6.156,6.156,0,0,1,4.456-1.691,6.828,6.828,0,0,1,3.186.751,2.511,2.511,0,0,0,2.493-.059A2.436,2.436,0,0,0,45,37.728V27.807a2.454,2.454,0,0,0-.793-1.822ZM23.121,37.21V27.948a6.393,6.393,0,0,1,4.067-1.335,6.339,6.339,0,0,1,4.076,1.38v9.241a9.928,9.928,0,0,0-8.144-.025Zm19.085,0a10.291,10.291,0,0,0-8.144.04V27.992a6.785,6.785,0,0,1,8.144-.045Z" transform="translate(1.329 -1.18)" fill="#7684d6"/>
    </g>
  </g>
</svg>
