<svg xmlns="http://www.w3.org/2000/svg" width="101.68" height="181.416" viewBox="0 0 101.68 181.416">
  <path id="Union_1" data-name="Union 1" d="M86.225,194.92a3,3,0,0,1-.111-5.794l16.357-4.733c-88.876-26.061-86.192-70.207-84.4-99.748C20,53.008,71.77,15.722,73.973,14.151a3,3,0,0,1,3.485,4.884c-.517.368-51.644,37.185-53.394,65.974-1.775,29.2-4.186,68.8,79.525,93.462L91.719,166.39a3,3,0,1,1,4.28-4.2L119.2,185.8,87.782,194.89a2.984,2.984,0,0,1-1.557.031Z" transform="translate(-17.518 -13.593)" fill="rgba(44,221,136,0.47)"/>
</svg>
