<svg id="Group_7" data-name="Group 7" xmlns="http://www.w3.org/2000/svg" width="17.863" height="12.571" viewBox="0 0 17.863 12.571">
  <path id="Path_1" data-name="Path 1" d="M17.167,47c-.645-.767-1.835-1.079-4.109-1.079H4.8c-2.326,0-3.536.333-4.179,1.149C0,47.862,0,49.034,0,50.656v3.093c0,3.143.743,4.739,4.8,4.739h8.253c1.972,0,3.064-.276,3.771-.952.725-.694,1.034-1.826,1.034-3.787V50.656C17.863,48.945,17.815,47.766,17.167,47Zm-5.7,5.634L7.721,54.588a.576.576,0,0,1-.843-.511v-3.9a.576.576,0,0,1,.842-.511l3.748,1.946a.576.576,0,0,1,0,1.022Z" transform="translate(0 -45.917)" fill="#121212"/>
</svg>
