<svg xmlns="http://www.w3.org/2000/svg" width="9.058" height="16.793" viewBox="0 0 9.058 16.793">
  <g id="Group_132" data-name="Group 132" transform="translate(-28.4 -10.1)">
    <path id="Path_65" data-name="Path 65" d="M30.922,19.579H28.841c-.336,0-.441-.126-.441-.441V16.594c0-.336.126-.441.441-.441h2.081V14.3a4.668,4.668,0,0,1,.567-2.375,3.487,3.487,0,0,1,1.871-1.555,4.676,4.676,0,0,1,1.618-.273h2.06c.294,0,.42.126.42.42v2.4c0,.294-.126.42-.42.42-.567,0-1.135,0-1.7.021a.759.759,0,0,0-.862.862c-.021.631,0,1.24,0,1.892h2.438c.336,0,.462.126.462.462v2.543c0,.336-.105.441-.462.441H34.474v6.852c0,.357-.105.483-.483.483H31.363c-.315,0-.441-.126-.441-.441Z" transform="translate(0 0)" fill="#121212"/>
  </g>
</svg>
