<svg xmlns="http://www.w3.org/2000/svg" width="16.5" height="16.472" viewBox="0 0 16.5 16.472">
  <g id="Group_8" data-name="Group 8" transform="translate(0 -0.08)">
    <path id="Path_2" data-name="Path 2" d="M1.983.08A1.983,1.983,0,1,0,3.965,2.062,1.983,1.983,0,0,0,1.983.08ZM.273,5.549h3.42v11H.273ZM12.4,5.276A3.593,3.593,0,0,0,9.163,7.053H9.117v-1.5H5.837v11H9.254V11.109c0-1.435.273-2.825,2.052-2.825,1.754,0,1.777,1.641,1.777,2.917v5.351H16.5V10.517c0-2.962-.639-5.241-4.1-5.241Z" fill="#121212"/>
  </g>
</svg>
