<svg xmlns="http://www.w3.org/2000/svg" width="12.565" height="16.75" viewBox="0 0 12.565 16.75">
  <path id="hourglass-end" d="M12.771,16.75H5.8a2.8,2.8,0,0,1-2.124-.977,2.75,2.75,0,0,1-.64-2.2A8.739,8.739,0,0,1,6.1,8.375a8.739,8.739,0,0,1-3.071-5.2,2.75,2.75,0,0,1,.639-2.2A2.8,2.8,0,0,1,5.8,0h6.976A2.8,2.8,0,0,1,14.9.977a2.752,2.752,0,0,1,.641,2.2,8.763,8.763,0,0,1-3.079,5.2,8.764,8.764,0,0,1,3.075,5.2,2.753,2.753,0,0,1-.641,2.2,2.8,2.8,0,0,1-2.121.974Zm0-15.354H5.8a1.406,1.406,0,0,0-1.066.489A1.341,1.341,0,0,0,4.411,2.97a7.825,7.825,0,0,0,3.21,4.855.7.7,0,0,1,0,1.094,7.844,7.844,0,0,0-3.21,4.857,1.341,1.341,0,0,0,.318,1.088,1.406,1.406,0,0,0,1.066.489h6.976a1.406,1.406,0,0,0,1.066-.489,1.338,1.338,0,0,0,.318-1.085,7.864,7.864,0,0,0-3.21-4.859.7.7,0,0,1,0-1.092,7.857,7.857,0,0,0,3.21-4.86,1.337,1.337,0,0,0-.322-1.087A1.406,1.406,0,0,0,12.771,1.4Zm-.921,12.563H6.712A.7.7,0,0,1,6.065,13a7.806,7.806,0,0,1,2.422-2.982l.362-.288a.7.7,0,0,1,.869,0l.355.283A7.886,7.886,0,0,1,12.5,13a.7.7,0,0,1-.646.96Zm-3.941-1.4h2.741a8.075,8.075,0,0,0-1.369-1.4A7.886,7.886,0,0,0,7.909,12.563Z" transform="translate(-3.001)" fill="#f6f6f6"/>
</svg>
