<svg id="Group_94" data-name="Group 94" xmlns="http://www.w3.org/2000/svg" width="243.167" height="182.375" viewBox="0 0 243.167 182.375">
  <path id="Path_57" data-name="Path 57" d="M151.979,186.375H220.37a22.825,22.825,0,0,0,22.8-22.8V95.188a22.825,22.825,0,0,0-22.8-22.8H189.693l11.535-59.348A7.6,7.6,0,0,0,193.773,4H169.153a15.259,15.259,0,0,0-14.484,10.585L132.556,67.056a8.754,8.754,0,0,0-.327.912,83.743,83.743,0,0,0-3.047,22.379v73.231A22.825,22.825,0,0,0,151.979,186.375Zm-129.182,0H91.188a22.825,22.825,0,0,0,22.8-22.8V95.188a22.825,22.825,0,0,0-22.8-22.8H60.511L72.046,13.043A7.576,7.576,0,0,0,64.591,4H39.971A15.235,15.235,0,0,0,25.495,14.585L3.366,67.056c-.122.3-.228.608-.319.919A83.727,83.727,0,0,0,0,90.347v73.231A22.825,22.825,0,0,0,22.8,186.375Z" transform="translate(0 -4)" fill="#8c79ff"/>
</svg>
