<svg xmlns="http://www.w3.org/2000/svg" width="76.32" height="78.582" viewBox="0 0 76.32 78.582">
  <g id="Group_82" data-name="Group 82" transform="translate(-426.884 -5160.805)">
    <circle id="Ellipse_39" data-name="Ellipse 39" cx="36" cy="36" r="36" transform="translate(426.884 5167.387)" fill="#bbeffb"/>
    <g id="Group_78" data-name="Group 78" transform="translate(441.282 5167.739) rotate(-9)">
      <path id="Path_47" data-name="Path 47" d="M29.47,3a1.27,1.27,0,0,0-1.117.661L25.072,9.68l-6.738,1.261a1.272,1.272,0,0,0-.689,2.124l4.705,4.982-.88,6.8a1.273,1.273,0,0,0,1.808,1.317l6.19-2.94,6.19,2.94a1.273,1.273,0,0,0,1.808-1.317l-.88-6.8,4.705-4.982a1.272,1.272,0,0,0-.689-2.124L33.867,9.68l-3.28-6.017A1.27,1.27,0,0,0,29.47,3Zm0,3.93,2.453,4.5a1.278,1.278,0,0,0,.883.642l5.034.942L34.32,16.736a1.282,1.282,0,0,0-.339,1.038l.663,5.081-4.628-2.2a1.287,1.287,0,0,0-1.1,0l-4.628,2.2.663-5.081a1.282,1.282,0,0,0-.339-1.038L21.1,13.015l5.034-.942a1.278,1.278,0,0,0,.883-.642ZM11.641,17.008a1.272,1.272,0,0,0-1.117.663l-1.7,3.107-3.477.652a1.273,1.273,0,0,0-.691,2.127l2.432,2.571-.456,3.507a1.273,1.273,0,0,0,1.808,1.316l3.2-1.517,3.2,1.517a1.273,1.273,0,0,0,1.808-1.316l-.456-3.507,2.432-2.571a1.273,1.273,0,0,0-.691-2.127l-3.477-.652-1.7-3.107A1.272,1.272,0,0,0,11.641,17.008Zm35.657,0a1.272,1.272,0,0,0-1.117.663l-1.7,3.107-3.477.652a1.273,1.273,0,0,0-.691,2.127l2.432,2.571-.456,3.507A1.273,1.273,0,0,0,44.1,30.951l3.2-1.517,3.2,1.517A1.273,1.273,0,0,0,52.3,29.636l-.456-3.507,2.432-2.571a1.273,1.273,0,0,0-.691-2.127l-3.477-.652-1.7-3.107A1.272,1.272,0,0,0,47.3,17.008ZM11.641,20.94l.866,1.589a1.265,1.265,0,0,0,.883.639l1.779.334-1.244,1.316a1.272,1.272,0,0,0-.336,1.037l.232,1.793-1.631-.776a1.279,1.279,0,0,0-1.1,0l-1.631.776.232-1.793a1.272,1.272,0,0,0-.336-1.037L8.113,23.5l1.779-.334a1.265,1.265,0,0,0,.883-.639Zm35.657,0,.866,1.589a1.265,1.265,0,0,0,.883.639l1.779.334-1.244,1.316a1.272,1.272,0,0,0-.336,1.037l.232,1.793-1.631-.776a1.279,1.279,0,0,0-1.1,0l-1.631.776.232-1.793a1.272,1.272,0,0,0-.336-1.037L43.771,23.5l1.779-.334a1.265,1.265,0,0,0,.883-.639ZM19,33.563a9.557,9.557,0,0,0-6.24,3.32,3.82,3.82,0,0,0-3.124-1.624H7.82A3.822,3.822,0,0,0,4,39.08V52.665a3.822,3.822,0,0,0,3.82,3.82H9.639a3.823,3.823,0,0,0,3.573-2.477l2.826,1.85a3.82,3.82,0,0,0,2.092.627H34.655a1.268,1.268,0,0,0,.72-.227l17.91-12.3a1.038,1.038,0,0,0,.138-.11,4.623,4.623,0,0,0,.243-6.613,4.784,4.784,0,0,0-6.542-.354s-16.242,8.562-16.242,8.562H23.421A1.3,1.3,0,0,1,22.1,44.174,1.343,1.343,0,0,1,23.421,42.9H29.47a4.669,4.669,0,1,0,0-9.337Zm0,2.547H29.47a2.122,2.122,0,1,1,0,4.243H23.421a3.977,3.977,0,0,0-3.865,3.82,3.843,3.843,0,0,0,3.865,3.82H31.2a1.268,1.268,0,0,0,.595-.146l16.66-8.781a1.246,1.246,0,0,0,.264-.186,2.225,2.225,0,0,1,3.1.107,2.089,2.089,0,0,1-.05,2.928L34.26,53.939H18.131a1.266,1.266,0,0,1-.7-.209l-3.974-2.6V40.259C14.944,37.554,17.522,36.11,19,36.11ZM7.82,37.806H9.639a1.273,1.273,0,0,1,1.273,1.273V52.665a1.273,1.273,0,0,1-1.273,1.273H7.82a1.273,1.273,0,0,1-1.273-1.273V39.08A1.273,1.273,0,0,1,7.82,37.806Z" transform="translate(-1.222 -1.283)" fill="#00729f" stroke="#00729f" stroke-width="0.4" fill-rule="evenodd"/>
    </g>
  </g>
</svg>
