<svg xmlns="http://www.w3.org/2000/svg" xmlns:xlink="http://www.w3.org/1999/xlink" width="72.333" height="72" viewBox="0 0 72.333 72">
  <defs>
    <clipPath id="clip-path">
      <path id="Path_53" data-name="Path 53" d="M0-682.665H55.833v55.833H0Z" transform="translate(0 682.665)" fill="#df2727"/>
    </clipPath>
  </defs>
  <g id="Group_88" data-name="Group 88" transform="translate(-785 -5178)">
    <circle id="Ellipse_39" data-name="Ellipse 39" cx="36" cy="36" r="36" transform="translate(785 5178)" fill="#fe8686"/>
    <g id="Group_87" data-name="Group 87" transform="translate(801.5 5178.998)">
      <g id="Group_86" data-name="Group 86" transform="translate(0 0.002)" clip-path="url(#clip-path)">
        <path id="Path_50" data-name="Path 50" d="M-90.185-516.646h-3.271v-5.016A6.553,6.553,0,0,1-100-528.206a6.55,6.55,0,0,1,6.543-6.543V-548.8l2.185.779a3.218,3.218,0,0,0,1.084.187,3.251,3.251,0,0,0,2.315-.958,3.25,3.25,0,0,0,.958-2.313,3.277,3.277,0,0,0-3.276-3.271,3.208,3.208,0,0,0-1.082.187l-2.185.779v-9.254h3.271v5.016h0a6.55,6.55,0,0,1,6.541,6.543,6.5,6.5,0,0,1-1.916,4.627,6.5,6.5,0,0,1-4.627,1.916v14.053l-2.186-.781a3.217,3.217,0,0,0-1.085-.187,3.275,3.275,0,0,0-3.271,3.271,3.277,3.277,0,0,0,3.276,3.271,3.208,3.208,0,0,0,1.082-.187l2.185-.779Z" transform="translate(116.466 570.844)" fill="#df2727"/>
        <path id="Path_51" data-name="Path 51" d="M-528.206-83.642a6.55,6.55,0,0,1-6.543-6.543H-548.8l.779-2.185a3.207,3.207,0,0,0,.187-1.084,3.276,3.276,0,0,0-3.271-3.274,3.275,3.275,0,0,0-3.271,3.271,3.21,3.21,0,0,0,.187,1.086l.779,2.185h-9.254v-3.271h5.016v0A6.55,6.55,0,0,1-551.106-100a6.55,6.55,0,0,1,6.543,6.543h14.052l-.779,2.185a3.207,3.207,0,0,0-.187,1.084,3.276,3.276,0,0,0,3.271,3.274,3.275,3.275,0,0,0,3.271-3.271,3.209,3.209,0,0,0-.187-1.086l-.779-2.185h9.254v3.271h-5.016v0A6.55,6.55,0,0,1-528.206-83.642Z" transform="translate(564.301 123.009)" fill="#df2727"/>
        <path id="Path_52" data-name="Path 52" d="M-558.02-325.5a24.673,24.673,0,0,1-24.645-24.645,24.673,24.673,0,0,1,24.645-24.645h4.907a6.55,6.55,0,0,1,6.543-6.543,6.55,6.55,0,0,1,6.543,6.543h6.652v6.652a6.55,6.55,0,0,1,6.543,6.543,6.55,6.55,0,0,1-6.543,6.543v4.907A24.673,24.673,0,0,1-558.02-325.5Zm0-46.019a21.4,21.4,0,0,0-21.374,21.374,21.4,21.4,0,0,0,21.374,21.374,21.4,21.4,0,0,0,21.374-21.374v-9.192l2.192.792a3.158,3.158,0,0,0,1.08.22,3.275,3.275,0,0,0,3.271-3.271,3.275,3.275,0,0,0-3.271-3.271,3.158,3.158,0,0,0-1.08.22l-2.192.792v-7.665h-7.665l.792-2.192a3.157,3.157,0,0,0,.22-1.08,3.275,3.275,0,0,0-3.271-3.271,3.275,3.275,0,0,0-3.271,3.271,3.158,3.158,0,0,0,.22,1.08l.792,2.192Z" transform="translate(582.665 381.332)" fill="#df2727"/>
      </g>
    </g>
  </g>
</svg>
