<svg xmlns="http://www.w3.org/2000/svg" width="72" height="72.345" viewBox="0 0 72 72.345">
  <g id="Group_85" data-name="Group 85" transform="translate(-784 -5177.655)">
    <circle id="Ellipse_39" data-name="Ellipse 39" cx="36" cy="36" r="36" transform="translate(784 5178)" fill="#fba7f2"/>
    <g id="Group_84" data-name="Group 84" transform="translate(801.17 5183.206) rotate(-7)">
      <path id="Path_48" data-name="Path 48" d="M43.4,48.59a1.156,1.156,0,0,0,0-1.63v-.006c-8.107-8.1-14.436-12.124-19.807-12.635v-13.3c8.9-.2,18.6-2.957,18.6-19.736A1.162,1.162,0,0,0,41.026.125c-12.747,0-17.876,2.882-19.3,12.511C19.415,8.124,14.81,6.323,6.935,6.323A1.162,1.162,0,0,0,5.773,7.486c0,10.023,5.8,16.1,15.5,16.568V34.318c-5.371.511-11.7,4.531-19.8,12.635l0,.006a1.156,1.156,0,0,0,0,1.63V48.6h.006a1.142,1.142,0,0,0,.818.341H42.575a1.159,1.159,0,0,0,.818-.341H43.4V48.59ZM22.431,36.54c4.463,0,10.137,3.329,17.262,10.072H5.168C12.293,39.869,17.968,36.54,22.431,36.54ZM39.8,2.468c-.313,10.624-4.76,15.459-14.907,16.116A99.89,99.89,0,0,1,34.1,8.307a1.165,1.165,0,0,0-1.646-1.643,103.219,103.219,0,0,0-8.771,9.694C24.259,5.552,27.9,2.648,39.8,2.468ZM8.156,8.673c8.563.217,12.074,2.823,12.9,10.2a74.723,74.723,0,0,0-5.551-6.012,1.165,1.165,0,0,0-1.649,1.643,55.763,55.763,0,0,1,6.415,7.19c-4.633-.5-11.6-2.957-12.118-13.023Z" transform="translate(0)" fill="#c800b4" stroke="#707070" stroke-width="0.6"/>
      <path id="Path_49" data-name="Path 49" d="M14,14.949a1.162,1.162,0,0,0,0-2.324H13.97a1.149,1.149,0,0,0-1.147,1.162A1.176,1.176,0,0,0,14,14.949ZM7.8,16.5a1.162,1.162,0,0,0,0-2.324H7.772a1.149,1.149,0,0,0-1.147,1.162A1.176,1.176,0,0,0,7.8,16.5Z" transform="translate(11.544 26.24)" fill="#c800b4" stroke="#707070" stroke-width="0.6"/>
    </g>
  </g>
</svg>
