<svg xmlns="http://www.w3.org/2000/svg" width="72" height="72.225" viewBox="0 0 72 72.225">
  <g id="Group_91" data-name="Group 91" transform="translate(-794.667 -6116.768)">
    <g id="Group_90" data-name="Group 90" transform="translate(9.667 938.993)">
      <circle id="Ellipse_39" data-name="Ellipse 39" cx="36" cy="36" r="36" transform="translate(785 5178)" fill="#aea2f2"/>
    </g>
    <g id="Group_89" data-name="Group 89" transform="translate(812.281 6122.74) rotate(-7)">
      <path id="Path_54" data-name="Path 54" d="M46.884,28.249l-3.258-3.8a13.74,13.74,0,0,0,3.591-9.132C47.217,6.739,38.9.007,29.141.007c-9.916,0-17.983,6.868-17.983,15.309,0,.212.007.425.017.637C4.576,18.575,0,24.228,0,30.763A14.922,14.922,0,0,0,3.965,40.789L.341,44.931a1.383,1.383,0,0,0,1.041,2.294H20.841c.154,0,.639-.088.738-.1a20.689,20.689,0,0,0,11.972-5.082,15.147,15.147,0,0,0,5.27-11.513h7.012A1.384,1.384,0,0,0,46.884,28.249ZM21.118,44.391c-.121.01-.539.046-.622.067H4.431L6.888,41.65A1.383,1.383,0,0,0,6.8,39.736a12.363,12.363,0,0,1-4.034-8.972c0-7.5,7.487-13.6,16.692-13.6,9.153,0,16.6,6.1,16.6,13.6C36.058,37.776,29.525,43.7,21.118,44.391ZM38.5,27.766c-1.669-7.7-9.652-13.372-19.045-13.372a22.815,22.815,0,0,0-5.529.674c.161-6.8,6.923-12.294,15.213-12.294,8.441,0,15.309,5.626,15.309,12.542A11.208,11.208,0,0,1,40.8,23.4a1.383,1.383,0,0,0-.094,1.9l2.118,2.471Z" transform="translate(0)" fill="#4a34d4" stroke="#4a34d4" stroke-width="0.4"/>
      <path id="Path_55" data-name="Path 55" d="M93.764,301a2.767,2.767,0,1,0,2.767,2.767A2.77,2.77,0,0,0,93.764,301Zm8.3,0a2.767,2.767,0,1,0,2.767,2.767A2.77,2.77,0,0,0,102.064,301Zm8.3,0a2.767,2.767,0,1,0,2.767,2.767A2.77,2.77,0,0,0,110.364,301Z" transform="translate(-82.606 -273.233)" fill="#4a34d4" stroke="#4a34d4" stroke-width="0.4"/>
    </g>
  </g>
</svg>
