<svg xmlns="http://www.w3.org/2000/svg" width="72" height="72" viewBox="0 0 72 72">
  <g id="Group_146" data-name="Group 146" transform="translate(-1054 -5555)">
    <g id="Group_93" data-name="Group 93" transform="translate(259.333 -561.993)">
      <g id="Group_90" data-name="Group 90" transform="translate(9.667 938.993)">
        <circle id="Ellipse_39" data-name="Ellipse 39" cx="36" cy="36" r="36" transform="translate(785 5178)" fill="#fcf7c4"/>
      </g>
    </g>
    <g id="Group_92" data-name="Group 92" transform="translate(1070.278 5558.355)">
      <path id="Path_56" data-name="Path 56" d="M39.358,2.751A19.156,19.156,0,0,0,20.224,21.884a18.949,18.949,0,0,0,1.246,6.74l-18.1,18.4a2.106,2.106,0,0,0-.6,1.476v7.936A2.105,2.105,0,0,0,4.872,58.54h12.77a2.105,2.105,0,0,0,2.105-2.105V51.6h4.838a2.105,2.105,0,0,0,2.105-2.105V44.28H32.77a2.105,2.105,0,0,0,2.105-2.105V40.462A19.123,19.123,0,1,0,39.358,2.751ZM24.437,21.884A14.906,14.906,0,1,1,33.6,35.653a2.11,2.11,0,0,0-2.931,1.937v2.482H24.588a2.105,2.105,0,0,0-2.105,2.105v5.211H17.644a2.105,2.105,0,0,0-2.105,2.105v4.838H6.98V49.364l18.1-18.406a2.844,2.844,0,0,0,.461-3.424,15.844,15.844,0,0,1-1.107-5.651Zm18.583-11.2a7.6,7.6,0,1,0,7.605,7.6A7.609,7.609,0,0,0,43.02,10.687Zm0,10.993a3.391,3.391,0,1,1,3.394-3.388A3.391,3.391,0,0,1,43.02,21.679Z" transform="translate(-2.767 -2.751)" fill="#9b8d0f"/>
    </g>
  </g>
</svg>
