<svg xmlns="http://www.w3.org/2000/svg" width="77.744" height="72" viewBox="0 0 77.744 72">
  <g id="Group_37" data-name="Group 37" transform="translate(-571 -1940)">
    <circle id="Ellipse_14" data-name="Ellipse 14" cx="36" cy="36" r="36" transform="translate(571 1940)" fill="#eea621" opacity="0.16"/>
    <g id="Group_36" data-name="Group 36" transform="matrix(0.921, -0.391, 0.391, 0.921, 586.304, 1954.948)">
      <ellipse id="Ellipse_3" data-name="Ellipse 3" cx="3.378" cy="3.378" rx="3.378" ry="3.378" transform="translate(20.578 19.257)" fill="none" stroke="#eea621" stroke-width="2.7"/>
      <path id="Path_30" data-name="Path 30" d="M221.135,252.757H211v-3.063A3.694,3.694,0,0,1,214.694,246h2.747a3.694,3.694,0,0,1,3.694,3.694Z" transform="translate(-192.111 -219.987)" fill="none" stroke="#eea621" stroke-width="2.7"/>
      <ellipse id="Ellipse_4" data-name="Ellipse 4" cx="3.378" cy="3.378" rx="3.378" ry="3.378" transform="translate(20.578 47.522)" fill="none" stroke="#eea621" stroke-width="2.7"/>
      <ellipse id="Ellipse_5" data-name="Ellipse 5" cx="14.302" cy="14.302" rx="14.302" ry="14.302" transform="translate(9.654 12.838)" fill="none" stroke="#eea621" stroke-width="2.7"/>
      <path id="Path_31" data-name="Path 31" d="M256,389.081V383" transform="translate(-232.044 -341.559)" fill="none" stroke="#eea621" stroke-width="2.7"/>
      <ellipse id="Ellipse_6" data-name="Ellipse 6" cx="3.378" cy="3.378" rx="3.378" ry="3.378" transform="translate(0 35.642)" fill="none" stroke="#eea621" stroke-width="2.7"/>
      <path id="Path_32" data-name="Path 32" d="M365.985,322.54l5.266-3.04" transform="translate(-359.681 -285.21)" fill="none" stroke="#eea621" stroke-width="2.7"/>
      <ellipse id="Ellipse_7" data-name="Ellipse 7" cx="3.378" cy="3.378" rx="3.378" ry="3.378" transform="translate(0 11.881)" fill="none" stroke="#eea621" stroke-width="2.7"/>
      <path id="Path_33" data-name="Path 33" d="M365.985,165.5l5.266,3.041" transform="translate(-359.681 -148.552)" fill="none" stroke="#eea621" stroke-width="2.7"/>
      <ellipse id="Ellipse_8" data-name="Ellipse 8" cx="3.378" cy="3.378" rx="3.378" ry="3.378" transform="translate(20.578)" fill="none" stroke="#eea621" stroke-width="2.7"/>
      <path id="Path_34" data-name="Path 34" d="M256,75v6.081" transform="translate(-232.044 -68.243)" fill="none" stroke="#eea621" stroke-width="2.7"/>
      <ellipse id="Ellipse_9" data-name="Ellipse 9" cx="3.378" cy="3.378" rx="3.378" ry="3.378" transform="translate(41.155 11.881)" fill="none" stroke="#eea621" stroke-width="2.7"/>
      <path id="Path_35" data-name="Path 35" d="M104.515,165.5l-5.266,3.041" transform="translate(-62.907 -148.552)" fill="none" stroke="#eea621" stroke-width="2.7"/>
      <ellipse id="Ellipse_10" data-name="Ellipse 10" cx="3.378" cy="3.378" rx="3.378" ry="3.378" transform="translate(41.155 35.642)" fill="none" stroke="#eea621" stroke-width="2.7"/>
      <path id="Path_36" data-name="Path 36" d="M104.515,322.54l-5.266-3.04" transform="translate(-62.907 -285.21)" fill="none" stroke="#eea621" stroke-width="2.7"/>
    </g>
  </g>
</svg>
