<svg xmlns="http://www.w3.org/2000/svg" width="111" height="114" viewBox="0 0 111 114">
  <g id="Group_59" data-name="Group 59" transform="translate(-1531 -2518)">
    <g id="Group_45" data-name="Group 45" transform="translate(607 581)">
      <circle id="Ellipse_2" data-name="Ellipse 2" cx="55.5" cy="55.5" r="55.5" transform="translate(924 1940)" fill="#d86778" opacity="0.23"/>
    </g>
    <g id="Group_58" data-name="Group 58" transform="translate(1550.771 2537.349) rotate(-17)">
      <path id="Path_39" data-name="Path 39" d="M48.949,15.067V12.573H63.212a1.946,1.946,0,0,0,1.946-1.946V1.946A1.946,1.946,0,0,0,63.212,0H47a1.947,1.947,0,0,0-1.946,1.946V15.067H16.624A16.643,16.643,0,0,0,0,31.692V52.674a1.947,1.947,0,0,0,1.946,1.946H25.791v9.613a1.947,1.947,0,0,0,1.946,1.946H38.443a1.947,1.947,0,0,0,1.946-1.946V54.621H64.234a1.947,1.947,0,0,0,1.946-1.946V31.692c0-8.557-6.632-16.625-17.231-16.625ZM62.287,50.728H33.25V31.692A16.6,16.6,0,0,0,27.3,18.96H45.056V29.139a6.714,6.714,0,1,0,3.893,0V18.96c8.258,0,13.339,6.147,13.339,12.733ZM36.5,62.287H29.684V54.621H36.5ZM3.893,31.692a12.732,12.732,0,1,1,25.464,0V50.728H3.893ZM47,32.744a2.821,2.821,0,1,1-2.82,2.821A2.826,2.826,0,0,1,47,32.744ZM61.266,8.68H48.949V3.893H61.266Z" transform="translate(0 0)" fill="#d86778"/>
      <path id="Path_40" data-name="Path 40" d="M73.591,239.753a1.946,1.946,0,0,0,0-3.893H62.5a1.946,1.946,0,0,0,0,3.893Z" transform="translate(-52.693 -205.254)" fill="#d86778"/>
    </g>
  </g>
</svg>
