<svg xmlns="http://www.w3.org/2000/svg" width="86.398" height="81.944" viewBox="0 0 86.398 81.944">
  <g id="Group_38" data-name="Group 38" transform="translate(-937 -1943.056)">
    <circle id="Ellipse_2" data-name="Ellipse 2" cx="36" cy="36" r="36" transform="translate(937 1953)" fill="#d86778" opacity="0.23"/>
    <g id="Group_35" data-name="Group 35" transform="matrix(0.899, -0.438, 0.438, 0.899, 949.594, 1967.252)">
      <path id="Path_29" data-name="Path 29" d="M29.6,57.194c-1.928,0-3.285-1.447-4.481-2.722a6.548,6.548,0,0,0-1.77-1.545,6.553,6.553,0,0,0-2.429.455c-1.642.492-3.509,1.053-5.124.116-1.637-.946-2.085-2.857-2.479-4.543a6.447,6.447,0,0,0-.792-2.284,6.456,6.456,0,0,0-2.286-.792c-1.685-.4-3.595-.844-4.541-2.479-.935-1.618-.377-3.482.116-5.126a6.491,6.491,0,0,0,.455-2.426,6.515,6.515,0,0,0-1.545-1.772C3.447,32.882,2,31.526,2,29.6s1.447-3.285,2.722-4.481a6.548,6.548,0,0,0,1.545-1.77,6.507,6.507,0,0,0-.455-2.429c-.493-1.644-1.051-3.507-.116-5.124.946-1.637,2.857-2.085,4.543-2.479a6.447,6.447,0,0,0,2.284-.792,6.456,6.456,0,0,0,.792-2.286c.4-1.685.844-3.595,2.479-4.541s3.485-.375,5.126.116a6.438,6.438,0,0,0,2.426.455,6.515,6.515,0,0,0,1.772-1.545C26.313,3.447,27.669,2,29.6,2s3.285,1.447,4.481,2.722a6.548,6.548,0,0,0,1.77,1.545,6.554,6.554,0,0,0,2.429-.455C39.921,5.32,41.789,4.761,43.4,5.7c1.637.946,2.085,2.857,2.479,4.543a6.447,6.447,0,0,0,.792,2.284,6.456,6.456,0,0,0,2.286.792c1.685.4,3.595.844,4.541,2.479.935,1.618.377,3.482-.116,5.126a6.491,6.491,0,0,0-.455,2.426,6.515,6.515,0,0,0,1.545,1.772c1.275,1.2,2.722,2.552,2.722,4.481s-1.447,3.285-2.722,4.481a6.548,6.548,0,0,0-1.545,1.77,6.507,6.507,0,0,0,.455,2.429c.493,1.644,1.051,3.507.116,5.124-.946,1.637-2.857,2.085-4.543,2.479a6.447,6.447,0,0,0-2.284.792,6.456,6.456,0,0,0-.792,2.286c-.4,1.685-.844,3.595-2.479,4.541s-3.485.375-5.126-.116a6.439,6.439,0,0,0-2.426-.455,6.515,6.515,0,0,0-1.772,1.545C32.882,55.747,31.526,57.194,29.6,57.194Zm-6.507-7.742a4.408,4.408,0,0,1,1.147.143,7.737,7.737,0,0,1,3.394,2.517c.573.61,1.531,1.632,1.966,1.632s1.393-1.022,1.966-1.632a7.736,7.736,0,0,1,3.4-2.517,8.056,8.056,0,0,1,4.307.482c.728.217,2.085.632,2.408.435.344-.2.67-1.593.847-2.343a7.854,7.854,0,0,1,1.712-3.937,7.851,7.851,0,0,1,3.937-1.712c.8-.189,2.144-.5,2.345-.849a5.987,5.987,0,0,0-.436-2.406,8.087,8.087,0,0,1-.482-4.31,7.737,7.737,0,0,1,2.517-3.394c.61-.572,1.632-1.53,1.632-1.965s-1.022-1.393-1.632-1.966a7.736,7.736,0,0,1-2.517-3.4,8.073,8.073,0,0,1,.482-4.307,5.958,5.958,0,0,0,.435-2.408c-.2-.344-1.593-.67-2.343-.847a7.854,7.854,0,0,1-3.937-1.712,7.851,7.851,0,0,1-1.712-3.937c-.189-.8-.5-2.144-.849-2.345a6.129,6.129,0,0,0-2.406.436,8.066,8.066,0,0,1-4.31.482,7.737,7.737,0,0,1-3.394-2.517c-.572-.61-1.53-1.632-1.965-1.632S28.2,6.472,27.631,7.082a7.736,7.736,0,0,1-3.4,2.517,8.056,8.056,0,0,1-4.307-.482c-.728-.217-2.082-.628-2.408-.435-.344.2-.67,1.593-.847,2.343a7.854,7.854,0,0,1-1.712,3.937,7.851,7.851,0,0,1-3.937,1.712c-.8.189-2.144.5-2.345.849a5.987,5.987,0,0,0,.436,2.406,8.087,8.087,0,0,1,.482,4.31,7.737,7.737,0,0,1-2.517,3.394c-.61.572-1.632,1.53-1.632,1.965s1.022,1.393,1.632,1.966a7.736,7.736,0,0,1,2.517,3.4,8.073,8.073,0,0,1-.482,4.307,5.958,5.958,0,0,0-.435,2.408c.2.344,1.593.67,2.343.847a7.854,7.854,0,0,1,3.937,1.712,7.851,7.851,0,0,1,1.712,3.937c.189.8.5,2.144.849,2.345a5.987,5.987,0,0,0,2.406-.436,11.306,11.306,0,0,1,3.163-.625ZM38.125,43.4a1.717,1.717,0,0,1-.793-.194L29.6,39.193,21.863,43.2a1.725,1.725,0,0,1-2.493-1.828l1.472-8.457L14.6,26.924a1.724,1.724,0,0,1,.95-2.951L24.2,22.735l3.859-7.709a1.8,1.8,0,0,1,3.086,0L35,22.735l8.639,1.238a1.724,1.724,0,0,1,.95,2.951l-6.238,5.993,1.472,8.457a1.725,1.725,0,0,1-1.7,2.021ZM19.543,26.887l3.687,3.544a3.444,3.444,0,0,1,1.011,3.078l-.876,5.03,4.646-2.407a3.452,3.452,0,0,1,3.174,0l4.646,2.407-.876-5.028a3.447,3.447,0,0,1,1.011-3.081l3.687-3.542-5.141-.736a3.447,3.447,0,0,1-2.6-1.871L29.6,19.651,27.28,24.281a3.447,3.447,0,0,1-2.6,1.87Z" transform="translate(-2 -2)" fill="#d86778"/>
    </g>
  </g>
</svg>
