<svg id="Group_76" data-name="Group 76" xmlns="http://www.w3.org/2000/svg" width="55" height="88.529" viewBox="0 0 55 88.529">
  <g id="Group_75" data-name="Group 75" transform="translate(3.206)">
    <path id="Path_46" data-name="Path 46" d="M10.057,36.252a6.038,6.038,0,0,1,9.776-3.738C15.073,6.547,15.4,8.537,15.4,7.744A6.724,6.724,0,0,1,28.722,6.4l3.322,21.247L36.078,9.357a6.724,6.724,0,1,1,13.205,2.421L44.724,36.387c-.968,5.164,1.479,7.921,3.765,14.577a16.823,16.823,0,0,1-2.313,15.424l-6.724,9.279a4.841,4.841,0,0,0-.793,3.348A2.689,2.689,0,0,1,35.97,81.7H13.109a2.689,2.689,0,0,1-2.689-2.689c0-2.932.551-1.641-5.177-11.4A26.9,26.9,0,0,1,2.351,56.154V45.665L1.988,45.1a6.172,6.172,0,0,1,8.068-8.848ZM7.112,38.189a3.51,3.51,0,0,0-2.837,5.487l6.145,9.79a3.51,3.51,0,0,0,6.482-.834,3.711,3.711,0,0,0-.484-2.811c-7.5-12.1-5.3-8.472-6.172-9.87A3.779,3.779,0,0,0,7.112,38.189Zm5.513-.713a5.379,5.379,0,0,0,1.143,3.012s6.065,9.655,6.065,9.723c2.205,3.523,7.154,2.031,6.63-2.125a8.068,8.068,0,0,1-7.974-8.068V38.673a2.689,2.689,0,0,1,1.183-2.219l-.363-.578C17.238,32.568,12.585,33.643,12.625,37.476Zm16.245,13.3h1.721a1.345,1.345,0,0,0,0-2.689H29.179a6.441,6.441,0,0,1-.309,2.689ZM46.647,11.321a4.058,4.058,0,1,0-7.988-1.439l-4.8,21.839a2.031,2.031,0,0,1-3.967-.121L26.073,6.91a4.037,4.037,0,0,0-7.988.834c0,.457-.3-1.345,5.07,28.24h8.983a9.319,9.319,0,0,1,5.621,1.869,40.975,40.975,0,0,1,4.4,3.765,14.658,14.658,0,0,1-.067-5.634ZM5.041,56.154a24.353,24.353,0,0,0,2.515,10.1c5.9,10.072,5.554,9.1,5.554,12.762H35.97a7.194,7.194,0,0,1,1.345-4.895l6.724-9.279A14.214,14.214,0,0,0,46.526,53.9c-1.143-5.487-5.877-10.543-10.368-13.878a6.724,6.724,0,0,0-4.034-1.345H21.178v1.345A5.379,5.379,0,0,0,26.557,45.4h4.034a4.034,4.034,0,0,1,0,8.068h-1.9a5.379,5.379,0,0,0-4.935,3.227A1.345,1.345,0,1,1,21.3,55.617a7.409,7.409,0,0,1,.484-.914,6.616,6.616,0,0,1-2.34-1.076A6.186,6.186,0,0,1,8.174,54.971L5.041,49.942Z" transform="translate(-0.958 -0.942)" fill="#f6f6f6"/>
  </g>
  <g id="Ellipse_38" data-name="Ellipse 38" transform="translate(0 78.529)" fill="#fff" stroke="#f6f6f6" stroke-width="3">
    <ellipse cx="27.5" cy="5" rx="27.5" ry="5" stroke="none"/>
    <ellipse cx="27.5" cy="5" rx="26" ry="3.5" fill="none"/>
  </g>
</svg>
