<svg xmlns="http://www.w3.org/2000/svg" xmlns:xlink="http://www.w3.org/1999/xlink" width="76.171" height="72" viewBox="0 0 76.171 72">
  <defs>
    <clipPath id="clip-path">
      <path id="Path_70" data-name="Path 70" d="M0-682.665H45.466V-637.2H0Z" transform="translate(0 682.665)" fill="#58a3e0"/>
    </clipPath>
  </defs>
  <g id="Group_110" data-name="Group 110" transform="translate(-784 -7812)">
    <circle id="Ellipse_39" data-name="Ellipse 39" cx="36" cy="36" r="36" transform="translate(784 7812)" fill="#e4e7f5"/>
    <g id="Group_102" data-name="Group 102" transform="translate(806.864 7820.673) rotate(-11)">
      <g id="Group_101" data-name="Group 101" transform="translate(0 0.002)" clip-path="url(#clip-path)">
        <path id="Path_61" data-name="Path 61" d="M-532.658-574.885h-31.347a6.668,6.668,0,0,1-6.66-6.66V-616a1.332,1.332,0,0,1,1.332-1.332h31.347A1.332,1.332,0,0,1-536.654-616v34.455a4,4,0,0,0,4,4,1.332,1.332,0,0,1,1.332,1.332A1.332,1.332,0,0,1-532.658-574.885ZM-568-614.668v33.123a4,4,0,0,0,4,4h26.022a6.627,6.627,0,0,1-1.335-4v-33.123Z" transform="translate(570.665 618.841)" fill="#58a3e0"/>
        <path id="Path_62" data-name="Path 62" d="M-190.668-20h11.455a1.332,1.332,0,0,1,1.332,1.332V6.552a6.668,6.668,0,0,1-6.66,6.66h-.8A6.668,6.668,0,0,1-192,6.552v-25.22A1.332,1.332,0,0,1-190.668-20Zm10.123,2.664h-8.791V6.552a4,4,0,0,0,4,4h.8a4,4,0,0,0,4-4Z" transform="translate(223.347 30.745)" fill="#58a3e0"/>
        <path id="Path_63" data-name="Path 63" d="M-24.891-17.336h-.444a1.332,1.332,0,0,1-1.332-1.332A1.332,1.332,0,0,1-25.335-20h.444a1.332,1.332,0,0,1,1.332,1.332A1.332,1.332,0,0,1-24.891-17.336Z" transform="translate(63.342 61.293)" fill="#58a3e0"/>
        <path id="Path_64" data-name="Path 64" d="M1.224-17.336H-18.668A1.332,1.332,0,0,1-20-18.668,1.332,1.332,0,0,1-18.668-20H1.224a1.332,1.332,0,0,1,1.332,1.332A1.332,1.332,0,0,1,1.224-17.336Z" transform="translate(25.772 27.903)" fill="#58a3e0"/>
        <path id="Path_65" data-name="Path 65" d="M1.224-17.336H-18.668A1.332,1.332,0,0,1-20-18.668,1.332,1.332,0,0,1-18.668-20H1.224a1.332,1.332,0,0,1,1.332,1.332A1.332,1.332,0,0,1,1.224-17.336Z" transform="translate(25.772 33.587)" fill="#58a3e0"/>
        <path id="Path_66" data-name="Path 66" d="M1.224-17.336H-18.668A1.332,1.332,0,0,1-20-18.668,1.332,1.332,0,0,1-18.668-20H1.224a1.332,1.332,0,0,1,1.332,1.332A1.332,1.332,0,0,1,1.224-17.336Z" transform="translate(25.772 54.899)" fill="#58a3e0"/>
        <path id="Path_67" data-name="Path 67" d="M247.277-380.722h-9.946A1.332,1.332,0,0,1,236-382.055V-392a1.332,1.332,0,0,1,1.332-1.332h9.946A1.332,1.332,0,0,1,248.609-392v9.946A1.332,1.332,0,0,1,247.277-380.722Zm-8.614-2.664h7.282v-7.282h-7.282Z" transform="translate(-220.282 412.602)" fill="#58a3e0"/>
        <path id="Path_68" data-name="Path 68" d="M-14.405-17.336h-4.262A1.332,1.332,0,0,1-20-18.668,1.332,1.332,0,0,1-18.668-20h4.262a1.332,1.332,0,0,1,1.332,1.332A1.332,1.332,0,0,1-14.405-17.336Z" transform="translate(25.772 41.401)" fill="#58a3e0"/>
        <path id="Path_69" data-name="Path 69" d="M-14.405-17.336h-4.262A1.332,1.332,0,0,1-20-18.668,1.332,1.332,0,0,1-18.668-20h4.262a1.332,1.332,0,0,1,1.332,1.332A1.332,1.332,0,0,1-14.405-17.336Z" transform="translate(25.772 47.084)" fill="#58a3e0"/>
      </g>
    </g>
  </g>
</svg>
